<?xml version="1.0" encoding="iso-8859-1"?>
<!-- Generator: Adobe Illustrator 19.0.0, SVG Export Plug-In . SVG Version: 6.00 Build 0)  -->
<svg version="1.1" id="Capa_1" xmlns="http://www.w3.org/2000/svg" xmlns:xlink="http://www.w3.org/1999/xlink" x="0px" y="0px"
	 viewBox="0 0 512.01 512.01" style="enable-background:new 0 0 512.01 512.01;" xml:space="preserve">
<g>
	<g>
		<path d="M507.671,450.099l-48.624-35.939l-99.827-199.857l148.451-109.725c4.75-3.5,5.75-10.177,2.25-14.917
			c-3.542-4.74-10.208-5.708-14.917-2.229L349.55,194.943L265.546,26.765c-3.625-7.237-15.458-7.237-19.083,0l-84.004,168.177
			L17.005,87.432c-4.688-3.479-11.375-2.51-14.917,2.229c-3.5,4.74-2.5,11.417,2.25,14.917l148.451,109.725L52.962,414.16
			L4.338,450.099c-4.75,3.5-5.75,10.177-2.25,14.917c2.104,2.823,5.333,4.323,8.583,4.323c2.208,0,4.438-0.677,6.333-2.094
			l14.967-11.063l-9.509,19.036c-1.646,3.305-1.479,7.236,0.458,10.385c1.958,3.148,5.396,5.068,9.083,5.068h448
			c3.688,0,7.125-1.919,9.083-5.068c1.938-3.15,2.104-7.081,0.458-10.385l-9.509-19.036l14.967,11.063
			c1.896,1.417,4.125,2.094,6.333,2.094c3.25,0,6.479-1.5,8.583-4.323C513.421,460.276,512.421,453.599,507.671,450.099z
			 M421.162,386.157L273.937,277.338l67.767-50.089L421.162,386.157z M256.005,55.859l76.021,152.035l-76.021,56.19l-76.021-56.19
			L256.005,55.859z M170.306,227.25l67.767,50.089L90.847,386.157L170.306,227.25z M49.255,469.338l20.568-41.133l186.182-137.613
			l186.182,137.613l20.568,41.133H49.255z"/>
	</g>
</g>
<g>
</g>
<g>
</g>
<g>
</g>
<g>
</g>
<g>
</g>
<g>
</g>
<g>
</g>
<g>
</g>
<g>
</g>
<g>
</g>
<g>
</g>
<g>
</g>
<g>
</g>
<g>
</g>
<g>
</g>
</svg>
