<?xml version="1.0" encoding="iso-8859-1"?>
<!-- Generator: Adobe Illustrator 19.0.0, SVG Export Plug-In . SVG Version: 6.00 Build 0)  -->
<svg version="1.1" id="Capa_1" xmlns="http://www.w3.org/2000/svg" xmlns:xlink="http://www.w3.org/1999/xlink" x="0px" y="0px"
	 viewBox="0 0 512.009 512.009" style="enable-background:new 0 0 512.009 512.009;" xml:space="preserve">
<g>
	<g>
		<path d="M496.921,192.963l-4.505,2.048l19.38-96.893c1.167-5.781-2.583-11.396-8.375-12.552
			c-5.479-1.208-11.375,2.563-12.542,8.365l-14.667,73.328c-6.211-3.191-11.122-8.294-16.75-14.436
			c-10.125-11.051-22.729-24.801-46.979-24.801s-36.833,13.75-46.958,24.801c-9.125,9.979-16.354,17.863-31.188,17.863
			c-14.854,0-22.063-7.884-31.208-17.863c-10.125-11.051-22.729-24.801-46.979-24.801c-24.229,0-36.833,13.75-46.938,24.79
			c-9.167,9.99-16.396,17.874-31.25,17.874c-14.875,0-22.125-7.884-31.292-17.874c-10.125-11.04-22.75-24.79-47.021-24.79
			c-24.271,0-36.875,13.74-47,24.79c-5.658,6.159-10.592,11.283-16.849,14.474L21.129,93.93c-1.167-5.802-7.063-9.583-12.542-8.365
			c-5.792,1.156-9.542,6.771-8.375,12.552l19.38,96.893l-4.505-2.048c-5.354-2.417-11.667-0.063-14.125,5.292
			c-2.438,5.365-0.063,11.688,5.292,14.125l18.493,8.406l34.249,171.233l-31.409,14.277c-5.354,2.438-7.729,8.76-5.292,14.125
			c1.792,3.927,5.667,6.25,9.708,6.25c1.479,0,2.979-0.302,4.417-0.958l31.785-14.448c7.915,9.46,19.738,15.406,32.694,15.406
			h310.208c12.956,0,24.779-5.947,32.694-15.406l31.785,14.448c1.438,0.656,2.938,0.958,4.417,0.958c4.042,0,7.917-2.323,9.708-6.25
			c2.438-5.365,0.063-11.688-5.292-14.125l-31.409-14.277l34.249-171.233l18.493-8.406c5.354-2.438,7.729-8.76,5.292-14.125
			C508.609,192.901,502.296,190.546,496.921,192.963z M48.678,231.664l181.552,82.523L78.938,382.955L48.678,231.664z
			 M411.109,405.339H100.9c-4.25,0-8.124-1.495-11.501-3.707l166.605-75.73l166.605,75.73
			C419.232,403.845,415.359,405.339,411.109,405.339z M433.071,382.955l-151.292-68.768l181.552-82.523L433.071,382.955z
			 M468.486,205.887l-212.482,96.583L43.523,205.887l-3.454-17.27c12.586-4.647,20.918-13.353,28.29-21.389
			c9.167-9.99,16.417-17.875,31.292-17.875c14.896,0,22.146,7.896,31.313,17.885c10.125,11.04,22.75,24.779,47,24.779
			s36.854-13.749,46.979-24.799c9.146-9.979,16.354-17.865,31.208-17.865c14.854,0,22.083,7.885,31.25,17.875
			c10.104,11.04,22.708,24.789,46.938,24.789c24.229,0,36.813-13.749,46.938-24.789c9.146-9.99,16.354-17.875,31.208-17.875
			s22.083,7.885,31.25,17.875c7.349,8.036,15.664,16.736,28.208,21.383L468.486,205.887z"/>
	</g>
</g>
<g>
</g>
<g>
</g>
<g>
</g>
<g>
</g>
<g>
</g>
<g>
</g>
<g>
</g>
<g>
</g>
<g>
</g>
<g>
</g>
<g>
</g>
<g>
</g>
<g>
</g>
<g>
</g>
<g>
</g>
</svg>
