<?xml version="1.0" encoding="iso-8859-1"?>
<!-- Generator: Adobe Illustrator 19.0.0, SVG Export Plug-In . SVG Version: 6.00 Build 0)  -->
<svg version="1.1" id="Capa_1" xmlns="http://www.w3.org/2000/svg" xmlns:xlink="http://www.w3.org/1999/xlink" x="0px" y="0px"
	 viewBox="0 0 512.002 512.002" style="enable-background:new 0 0 512.002 512.002;" xml:space="preserve">
<g>
	<g>
		<path d="M503.428,117.579c-5.833-1.306-11.406,2.745-12.552,8.887l-13.797,73.289c-6.665-3.134-11.732-8.514-17.641-14.962
			c-8-8.733-17.652-19.053-33.289-23.031c-1.301-24.686-11.266-47.786-29.065-65.392l-35.563-35.158
			c-20.063-19.814-47.844-30.512-76.063-29.085l-127.552,6c-4.885,0.229-8.99,3.75-9.958,8.543
			c-2.667,13.177,0.146,26.491,7.927,37.501c7.771,10.979,19.906,18.376,33.313,20.272l26.719,3.771
			c4.583,0.646,8.177,3.604,9.604,7.927c0.667,2.021,1.729,7.219-2.865,11.762l-66.764,66.009c-3.078-2.698-6.066-5.693-9.215-9.12
			c-10.135-11.042-22.75-24.792-47.021-24.792c-24.271,0-36.885,13.75-47.021,24.792c-5.919,6.453-11.004,11.849-17.701,14.982
			l-13.8-73.309c-1.146-6.131-6.719-10.171-12.552-8.887c-5.771,1.228-9.521,7.194-8.365,13.336l58.854,312.642
			c3.969,21.116,21.563,36.444,41.833,36.444h310.208c20.271,0,37.865-15.328,41.833-36.444l58.854-312.642
			C512.949,124.773,509.199,118.807,503.428,117.579z M237.647,143.07c8.948-8.844,12.063-21.73,8.115-33.637
			c-3.969-12.001-14.271-20.564-26.875-22.345l-26.708-3.771c-7.729-1.094-14.427-5.167-18.875-11.46
			c-2.75-3.896-4.396-8.292-4.854-12.865l118.01-5.552c22.198-1.073,44.24,7.302,60.063,22.939l35.563,35.158
			c13.422,13.273,21.079,30.533,22.612,49.021c-19.238,2.585-30.19,14.449-39.154,24.234c-9.146,9.99-16.375,17.875-31.219,17.875
			s-22.073-7.885-31.219-17.875c-10.115-11.042-22.708-24.792-46.948-24.792s-36.833,13.75-46.958,24.792
			c-9.146,9.99-16.375,17.875-31.229,17.875c-0.198,0-0.332-0.072-0.527-0.074L237.647,143.07z M285.564,269.848
			c-4.135-4.198-10.885-4.24-15.083-0.083l-79.719,78.816c-4.656,4.615-12.25,4.594-16.885,0c-2.219-2.188-3.438-5.094-3.438-8.167
			c0-3.012,1.156-5.845,3.271-8.022l79.885-78.983c4.187-4.135,4.229-10.896,0.083-15.083c-4.135-4.198-10.885-4.24-15.083-0.083
			l-79.719,78.816c-0.094,0.094-0.188,0.188-0.281,0.281l-15.656,15.479c-4.656,4.594-12.25,4.594-16.885,0
			c-2.219-2.198-3.448-5.104-3.438-8.188c0-3.073,1.219-5.969,3.438-8.167l79.708-78.816c4.188-4.135,4.229-10.897,0.083-15.085
			c-1.785-1.813-4.079-2.695-6.423-2.954c11.214-4.944,18.917-13.212,25.506-20.4c9.146-9.99,16.375-17.875,31.229-17.875
			c14.844,0,22.073,7.885,31.219,17.875c10.115,11.042,22.708,24.792,46.948,24.792c24.24,0,36.833-13.75,46.948-24.792
			c7.122-7.779,13.199-14.15,22.497-16.646c-3.043,15.02-10.477,28.833-21.685,39.917l-127.542,126.1
			c-4.646,4.604-12.25,4.604-16.896,0c-2.219-2.188-3.438-5.094-3.438-8.167c0-3.085,1.219-5.991,3.438-8.189l47.833-47.294
			C289.668,280.795,289.709,274.035,285.564,269.848z M159.176,220.655c5.419,2.02,11.536,3.346,18.794,3.346
			c4.763,0,8.964-0.652,12.897-1.59c-0.031,0.03-0.074,0.038-0.105,0.069l-63.771,63.044c-4.677,4.616-12.25,4.595-16.885,0
			c-2.219-2.188-3.438-5.094-3.438-8.167c0-3.083,1.219-5.99,3.438-8.188L159.176,220.655z M432.022,439.108
			c-1.99,10.559-10.781,19.56-20.917,19.56H100.897c-10.135,0-18.927-9.001-20.917-19.56L38.905,220.906
			c13.193-4.527,21.861-13.423,29.44-21.686c9.167-9.99,16.406-17.885,31.302-17.885c14.896,0,22.135,7.896,31.313,17.885
			c2.919,3.181,6.098,6.561,9.647,9.797l-45.501,44.986c-6.302,6.23-9.771,14.533-9.771,23.355
			c0.01,8.823,3.479,17.116,9.771,23.335c3.188,3.156,6.875,5.531,10.802,7.135c-3.021,5.021-4.625,10.793-4.625,16.803
			c-0.01,8.823,3.469,17.126,9.771,23.355c10.958,10.865,27.76,12.5,40.521,4.927c1.656,4.01,4.115,7.688,7.302,10.833
			c6.469,6.397,14.958,9.585,23.448,9.585c8.49,0,16.979-3.188,23.438-9.585l9.99-9.875c1.646,3.635,3.969,6.979,6.896,9.875
			c12.938,12.793,33.958,12.772,46.896,0l127.542-126.099c14.949-14.788,24.415-33.445,27.906-53.652
			c7.212,3.078,12.625,8.557,18.719,15.214c7.573,8.256,16.219,17.158,29.391,21.689L432.022,439.108z"/>
	</g>
</g>
<g>
</g>
<g>
</g>
<g>
</g>
<g>
</g>
<g>
</g>
<g>
</g>
<g>
</g>
<g>
</g>
<g>
</g>
<g>
</g>
<g>
</g>
<g>
</g>
<g>
</g>
<g>
</g>
<g>
</g>
</svg>
