<svg xmlns="http://www.w3.org/2000/svg" xmlns:xlink="http://www.w3.org/1999/xlink" width="18" height="22" viewBox="0 0 18 22"><g transform="translate(-1064 -397)"><path fill="#3e3130" id="r2u4a" d="M1068.984 397.457h3.78c2.297 0 3.917.2 4.861.6 1.168.498 2.053 1.191 2.656 2.08.604.888.905 1.929.905 3.12 0 1.308-.353 2.493-1.06 3.552a6.1 6.1 0 0 1-2.842 2.314c-1.19.484-3.168.745-5.935.785l-.425 3.092H1074v3h-3.488l-.413 3.004h-4.06l.411-3.004H1064v-3h2.86zm2.859 8.642c2.194-.01 3.626-.24 4.296-.689.67-.449 1.004-1.118 1.004-2.007 0-.498-.13-.917-.391-1.26-.262-.34-.649-.58-1.161-.717-.513-.136-1.529-.205-3.048-.205z"/></g></svg>