<?xml version="1.0" encoding="iso-8859-1"?>
<!-- Generator: Adobe Illustrator 19.0.0, SVG Export Plug-In . SVG Version: 6.00 Build 0)  -->
<svg version="1.1" id="Capa_1" xmlns="http://www.w3.org/2000/svg" xmlns:xlink="http://www.w3.org/1999/xlink" x="0px" y="0px"
	 viewBox="0 0 512.009 512.009" style="enable-background:new 0 0 512.009 512.009;" xml:space="preserve">
<g>
	<g>
		<g>
			<circle cx="170.671" cy="277.338" r="21.333"/>
			<circle cx="256.004" cy="277.338" r="21.333"/>
			<circle cx="341.338" cy="277.338" r="21.333"/>
			<path d="M503.421,85.566c-5.479-1.208-11.375,2.563-12.542,8.365l-14.667,73.328c-6.211-3.191-11.122-8.294-16.75-14.436
				c-10.125-11.051-22.729-24.801-46.979-24.801s-36.833,13.75-46.958,24.801c-9.125,9.979-16.354,17.863-31.188,17.863
				c-14.854,0-22.063-7.884-31.208-17.863c-10.125-11.051-22.729-24.801-46.979-24.801c-24.229,0-36.833,13.75-46.938,24.79
				c-9.167,9.99-16.396,17.874-31.25,17.874c-14.875,0-22.125-7.884-31.292-17.874c-10.125-11.04-22.75-24.79-47.021-24.79
				c-24.271,0-36.875,13.74-47,24.79c-5.658,6.159-10.592,11.283-16.849,14.474L21.129,93.93c-1.167-5.802-7.063-9.583-12.542-8.365
				c-5.792,1.156-9.542,6.771-8.375,12.552l58.854,294.253c3.979,19.874,21.583,34.301,41.833,34.301h310.208
				c20.25,0,37.854-14.427,41.833-34.301l58.854-294.253C512.963,92.337,509.213,86.722,503.421,85.566z M432.025,388.183
				c-2,9.938-10.792,17.156-20.917,17.156H100.9c-10.125,0-18.917-7.219-20.917-17.156L40.068,188.618
				c12.586-4.647,20.918-13.353,28.29-21.389c9.167-9.99,16.417-17.875,31.292-17.875c14.896,0,22.146,7.896,31.313,17.885
				c10.125,11.04,22.75,24.779,47,24.779s36.854-13.749,46.979-24.799c9.146-9.979,16.354-17.865,31.208-17.865
				c14.854,0,22.083,7.885,31.25,17.875c10.104,11.04,22.708,24.789,46.938,24.789c24.229,0,36.813-13.749,46.938-24.789
				c9.146-9.99,16.354-17.875,31.208-17.875s22.083,7.885,31.25,17.875c7.349,8.036,15.664,16.736,28.208,21.383L432.025,388.183z"
				/>
		</g>
	</g>
</g>
<g>
</g>
<g>
</g>
<g>
</g>
<g>
</g>
<g>
</g>
<g>
</g>
<g>
</g>
<g>
</g>
<g>
</g>
<g>
</g>
<g>
</g>
<g>
</g>
<g>
</g>
<g>
</g>
<g>
</g>
</svg>
