<svg xmlns="http://www.w3.org/2000/svg">
<symbol id="arrow" viewBox="0 0 41 12"> <path fill="#3e3130" transform="translate(-389 -910)" id="c32oa" d="M389 922v-3h36.38l-6.683-6.683 2.12-2.122 8.486 8.486-.319.319H429v3z"/> </symbol>
<symbol id="caret_right" viewBox="0 0 11 19"><g transform="translate(-813 -1277)"><path fill="#f37e7e" id="e8qaa" d="M813 1293.913l7.327-7.414-7.328-7.413 2.063-2.087 8.938 9.043-.451.457.451.457-8.938 9.044z"/></g></symbol>
<symbol id="close" viewBox="0 0 512 512"><path d="M512 445.2L445.2 512 256 322.8 66.8 512 0 445.2 189.2 256 0 66.8 66.8 0 256 189.2 445.2 0 512 66.8 322.8 256 512 445.2z" style="fill:#f05f5f"/></symbol>
<symbol id="done" viewBox="0 0 426.667 426.667"> <g> <g> <polygon points="293.333,135.04 190.08,240.213 137.173,187.093 108.8,215.467 192.213,298.667 326.187,168.747 		"/> </g> </g> <g> <g> <path d="M213.333,0C95.513,0,0,95.513,0,213.333s95.513,213.333,213.333,213.333s213.333-95.513,213.333-213.333
			S331.154,0,213.333,0z M213.333,388.053c-96.495,0-174.72-78.225-174.72-174.72s78.225-174.72,174.72-174.72
			c96.446,0.117,174.602,78.273,174.72,174.72C388.053,309.829,309.829,388.053,213.333,388.053z"/> </g> </g>                </symbol>
<symbol id="dummy" viewBox="0 0 477.492 477.492"> <g> <path d="m372.204,106.642c2.703-8.458 1.937-17.455-2.157-25.334-4.095-7.879-11.018-13.678-19.494-16.327l-56.974-17.804c-6.133-1.917-10.683-7.265-11.592-13.626l-1.999-13.995c-1.593-11.149-11.287-19.556-22.549-19.556h-37.385c-11.262,0-20.956,8.407-22.549,19.557l-1.999,13.994c-0.908,6.361-5.459,11.709-11.592,13.626l-56.976,17.804c-8.476,2.649-15.397,8.447-19.493,16.327-4.094,7.879-4.86,16.876-2.157,25.334l33.412,104.545c10.435,32.646 9.682,68.346-2.104,100.483l-.062,.164c-11.096,29.415-16.148,60.098-15.018,91.198l2.034,55.933c0.172,4.737 3.646,8.702 8.319,9.496 35.459,6.021 71.168,9.032 106.877,9.032s71.418-3.011 106.877-9.032c4.674-0.793 8.147-4.759 8.319-9.496l2.033-55.933c1.132-31.098-3.921-61.781-15.018-91.198-0.001-0.003-0.045-0.122-0.046-0.125-11.801-32.175-12.554-67.875-2.12-100.522l33.413-104.545zm-38.213,257.852c-4.182,0.887-8.385,1.737-12.567,2.498-5.434,0.989-9.037,6.195-8.049,11.629 0.879,4.828 5.088,8.211 9.827,8.211 0.595,0 1.197-0.053 1.802-0.164 3.619-0.658 7.253-1.38 10.879-2.13 0.277,5.902 0.323,11.825 0.107,17.766l-1.736,47.746c-63.423,9.922-127.594,9.922-191.015,0l-1.736-47.746c-0.234-6.437-0.162-12.854 0.182-19.244 3.527,0.786 7.063,1.544 10.588,2.244 0.657,0.13 1.312,0.193 1.957,0.193 4.675,0 8.854-3.295 9.798-8.055 1.075-5.417-2.445-10.681-7.862-11.755-4.146-0.823-8.304-1.732-12.439-2.677 2.246-14.953 6.08-29.698 11.516-44.108l.115-.307c4.681-12.764 7.816-26.02 9.41-39.444 5.489-0.039 9.928-4.498 9.928-9.996 0-5.081-3.792-9.266-8.698-9.906 0.096-18.298-2.643-36.615-8.248-54.152l-10.178-31.848c1.568,0.328 3.138,0.672 4.702,0.982 0.656,0.13 1.311,0.193 1.956,0.193 4.675,0 8.854-3.296 9.798-8.056 1.075-5.417-2.445-10.68-7.862-11.755-5.213-1.034-10.461-2.187-15.639-3.411l-16.187-50.649c-1.069-3.346-0.767-6.905 0.854-10.022 1.62-3.118 4.359-5.412 7.712-6.459l49.338-15.417c0.867,1.675 1.791,3.33 2.802,4.918 1.905,2.996 5.141,4.634 8.447,4.634 1.836,0 3.693-0.505 5.357-1.564 4.66-2.964 6.034-9.145 3.07-13.805-0.432-0.68-0.847-1.375-1.243-2.081 7.802-5.769 13.219-14.51 14.628-24.378l1.999-13.994c0.194-1.36 1.377-2.385 2.75-2.385h37.385c1.373,0 2.556,1.025 2.75,2.385l1.999,13.994c1.41,9.867 6.826,18.609 14.628,24.378-0.396,0.705-0.81,1.401-1.243,2.081-2.964,4.66-1.59,10.841 3.07,13.805 1.664,1.059 3.521,1.564 5.357,1.564 3.306,0 6.542-1.639 8.447-4.634 1.011-1.589 1.935-3.244 2.802-4.919l49.336,15.418c3.354,1.048 6.093,3.342 7.713,6.459 1.62,3.117 1.923,6.676 0.854,10.022l-16.73,52.35c-4.976,1.084-10.004,2.107-14.998,3.016-5.434,0.989-9.037,6.195-8.049,11.629 0.879,4.828 5.088,8.211 9.827,8.211 0.595,0 1.197-0.053 1.802-0.164 1.476-0.269 2.958-0.569 4.439-0.854l-9.701,30.356c-5.612,17.561-8.351,35.904-8.25,54.217-4.695,0.822-8.268,4.909-8.268,9.84 0,5.352 4.208,9.708 9.493,9.974 1.591,13.412 4.719,26.65 9.39,39.385l.139,.377c5.618,14.896 9.535,30.141 11.745,45.604z"/> <path d="m231.097,279.155h15.727c5.522,0 10-4.477 10-10s-4.478-10-10-10h-15.727c-5.522,0-10,4.477-10,10s4.478,10 10,10z"/> <path d="m205.76,259.155h-15.727c-5.522,0-10,4.477-10,10s4.478,10 10,10h15.727c5.522,0 10-4.477 10-10s-4.477-10-10-10z"/> <path d="m287.887,279.155c5.522,0 10-4.477 10-10s-4.478-10-10-10h-15.727c-5.522,0-10,4.477-10,10s4.478,10 10,10h15.727z"/> <path d="m209.138,95.777c4.195,2.208 8.642,3.945 13.217,5.162 0.861,0.229 1.726,0.338 2.577,0.338 4.422,0 8.467-2.956 9.657-7.432 1.42-5.337-1.757-10.815-7.094-12.234-3.128-0.832-6.169-2.02-9.039-3.531-4.889-2.573-10.934-0.697-13.508,4.19-2.573,4.886-0.697,10.934 4.19,13.507z"/> <path d="m252.543,101.281c0.851,0 1.714-0.109 2.574-0.337 4.574-1.215 9.021-2.951 13.219-5.159 4.888-2.571 6.766-8.618 4.193-13.506-2.57-4.888-8.618-6.765-13.506-4.194-2.871,1.511-5.913,2.698-9.041,3.529-5.338,1.418-8.516,6.895-7.098,12.232 1.191,4.477 5.236,7.435 9.659,7.435z"/> <path d="m266.651,172.517c0.4,5.249 4.782,9.24 9.96,9.24 0.255,0 0.513-0.01 0.771-0.029 6.086-0.464 12.246-1.058 18.311-1.764 5.486-0.639 9.415-5.604 8.776-11.09-0.639-5.485-5.604-9.41-11.089-8.776-5.803,0.676-11.696,1.244-17.52,1.688-5.506,0.42-9.629,5.224-9.209,10.731z"/> <path d="m181.514,179.063c6.05,0.801 12.2,1.492 18.281,2.053 0.313,0.028 0.622,0.042 0.93,0.042 5.108,0 9.468-3.896 9.946-9.083 0.507-5.5-3.541-10.369-9.04-10.876-5.817-0.536-11.702-1.197-17.49-1.964-5.472-0.723-10.501,3.125-11.227,8.6-0.725,5.476 3.124,10.502 8.6,11.228z"/> <path d="m247.658,163.034c-0.041,0-0.082,0-0.123,0-1.769,0.022-3.536,0.032-5.306,0.032-0.017,0-0.032,0-0.048,0-4.063,0-8.183-0.057-12.245-0.17-5.57-0.146-10.121,4.198-10.274,9.718-0.153,5.521 4.197,10.121 9.718,10.274 4.246,0.118 8.552,0.178 12.798,0.178 1.857-0.014 3.733-0.011 5.6-0.033 5.522-0.067 9.945-4.599 9.878-10.121-0.068-5.481-4.532-9.878-9.998-9.878z"/> <path d="m247.659,374.107c-0.041,0-0.083,0-0.124,0-5.861,0.074-11.774,0.023-17.599-0.139-0.095-0.003-0.189-0.004-0.283-0.004-5.394,0-9.84,4.296-9.991,9.722-0.153,5.521 4.197,10.121 9.718,10.274 4.251,0.119 8.574,0.179 12.851,0.179 1.849,0 3.698-0.011 5.547-0.033 5.522-0.067 9.945-4.599 9.878-10.121-0.068-5.481-4.532-9.878-9.997-9.878z"/> <path d="m293.38,371.172c-5.803,0.676-11.696,1.244-17.52,1.688-5.507,0.42-9.63,5.225-9.21,10.731 0.4,5.249 4.782,9.24 9.96,9.24 0.255,0 0.513-0.01 0.771-0.029 6.086-0.464 12.246-1.058 18.311-1.764 5.486-0.639 9.415-5.604 8.776-11.09-0.638-5.485-5.602-9.412-11.088-8.776z"/> <path d="m201.631,372.273c-5.817-0.536-11.702-1.197-17.49-1.964-5.472-0.723-10.501,3.125-11.227,8.6-0.726,5.475 3.124,10.501 8.6,11.227 6.05,0.801 12.2,1.492 18.281,2.053 0.313,0.028 0.622,0.042 0.93,0.042 5.108,0 9.468-3.896 9.946-9.083 0.507-5.499-3.541-10.368-9.04-10.875z"/> </g> </symbol>
<symbol id="facebook-f" viewBox="0 0 264 512"><path d="M215.8 85H264V3.6C255.7 2.5 227.1 0 193.8 0 124.3 0 76.7 42.4 76.7 120.3V192H0v91h76.7v229h94V283h73.6l11.7-91h-85.3v-62.7c0-26.3 7.3-44.3 45.1-44.3z"/></symbol>
<symbol id="instagram" viewBox="0 0 510 510"> <g> <g id="post-instagram"> <path d="M459,0H51C22.95,0,0,22.95,0,51v408c0,28.05,22.95,51,51,51h408c28.05,0,51-22.95,51-51V51C510,22.95,487.05,0,459,0z
			 M255,153c56.1,0,102,45.9,102,102c0,56.1-45.9,102-102,102c-56.1,0-102-45.9-102-102C153,198.9,198.9,153,255,153z M63.75,459
			C56.1,459,51,453.9,51,446.25V229.5h53.55C102,237.15,102,247.35,102,255c0,84.15,68.85,153,153,153c84.15,0,153-68.85,153-153
			c0-7.65,0-17.85-2.55-25.5H459v216.75c0,7.65-5.1,12.75-12.75,12.75H63.75z M459,114.75c0,7.65-5.1,12.75-12.75,12.75h-51
			c-7.65,0-12.75-5.1-12.75-12.75v-51c0-7.65,5.1-12.75,12.75-12.75h51C453.9,51,459,56.1,459,63.75V114.75z"/> </g> </g></symbol>
<symbol id="needle" viewBox="0 0 446.762 446.762"> <path d="m424.166,81.689c8.698-8.464 13.478-19.81 13.458-31.947-0.021-12.137-4.838-23.467-13.565-31.903-8.727-8.435-20.212-12.872-32.345-12.473-12.131,0.392-23.308,5.554-31.472,14.535l-4.115,4.527-4.143-4.143c-13.076-13.081-30.465-20.285-48.963-20.285-18.498,0-35.887,7.204-48.961,20.284-13.077,13.077-20.278,30.465-20.278,48.961 0,18.503 7.202,35.894 20.278,48.971l8.806,8.807-17.751,19.527c-24.898,27.389-49.465,55.256-73.655,83.513l-24.709-24.709c-12.229-12.229-28.488-18.964-45.781-18.964s-33.552,6.735-45.781,18.964c-12.226,12.226-18.959,28.484-18.959,45.781 0,17.303 6.733,33.565 18.959,45.791l33.398,33.399c-26.439,33.125-52.302,66.645-77.47,100.468-3.001,4.033-2.542,9.667 1.073,13.16 1.929,1.864 4.436,2.81 6.952,2.81 2.199,0 4.405-0.722 6.237-2.185 32.737-26.134 65.149-52.943 97.154-80.307l31.297,31.297c1.953,1.953 4.512,2.929 7.071,2.929s5.119-0.976 7.071-2.929c3.905-3.905 3.905-10.237 0-14.143l-30.228-30.228c22.611-19.541 45.004-39.357 67.141-59.424l37.505,37.505c16.76,16.759 39.045,25.989 62.751,25.989s45.991-9.229 62.75-25.988c16.767-16.761 26-39.047 26-62.752 0-23.706-9.233-45.991-25.999-62.751l-34.121-34.121 69.685-67.811c3.4,5.822 5.221,12.462 5.221,19.383 0,10.293-4.008,19.97-11.288,27.25l-3.214,3.215c-3.905,3.905-3.904,10.237 0.001,14.142 1.953,1.952 4.511,2.928 7.07,2.928s5.119-0.977 7.072-2.93l3.213-3.214c11.056-11.056 17.145-25.755 17.145-41.391 0-12.203-3.724-23.827-10.609-33.602l6.099-5.936zm-155.964,22.385c-9.299-9.299-14.421-21.668-14.421-34.829 0-13.154 5.122-25.52 14.422-34.82 9.298-9.302 21.663-14.425 34.818-14.425 13.155,0 25.52,5.123 34.819,14.426l4.818,4.818-66.324,72.962-8.132-8.132zm-8.288,55.929l96.902-106.6 9.641,9.641-20.293,20.994c-3.838,3.971-3.73,10.302 0.241,14.14 1.941,1.876 4.446,2.81 6.949,2.81 2.616,0 5.229-1.021 7.191-3.05l41.514-42.95c3.838-3.971 3.73-10.302-0.241-14.14-3.971-3.838-10.302-3.73-14.14,0.24l-7.32,7.573-10.074-10.074 4.756-5.232c4.493-4.942 10.643-7.782 17.319-7.998 0.272-0.009 0.544-0.013 0.815-0.013 6.373,0 12.377,2.424 16.983,6.876 4.803,4.642 7.454,10.877 7.465,17.556 0.011,6.679-2.619,12.922-7.406,17.58l-122.661,119.364c-26.869,26.146-54.24,51.967-82.025,77.411l-19.884-19.884c24.385-28.508 49.157-56.62 74.268-84.244zm-190.583,122.78c-8.448-8.448-13.101-19.688-13.101-31.648 0-11.955 4.653-23.191 13.102-31.639 8.451-8.452 19.688-13.106 31.639-13.106s23.188,4.654 31.639,13.106l25.848,25.848c-19.36,22.86-38.461,45.969-57.277,69.289l-31.85-31.85zm9.227,92.505c30.552-39.157 61.967-77.797 94.086-115.757l18.083,18.083c-36.742,33.289-74.184,65.902-112.169,97.674zm275.193-157.371c12.987,12.983 20.14,30.246 20.14,48.608 0,18.362-7.152,35.625-20.141,48.608-12.982,12.982-30.246,20.131-48.609,20.131s-35.627-7.149-48.609-20.131l-36.844-36.844c27.712-25.39 55.012-51.154 81.815-77.236l17.933-17.451 34.315,34.315z"/> </symbol>
<symbol id="pin" viewBox="0 0 418.493 418.493"> <path d="m297.721,133.507c-1.875,1.875-2.929,4.419-2.929,7.071s1.054,5.196 2.929,7.071l28.053,28.053c1.953,1.953 4.512,2.929 7.071,2.929s5.119-0.976 7.071-2.929l58.452-58.452c26.787-26.787 26.787-70.373 0-97.161-26.788-26.787-70.374-26.787-97.161,0l-58.452,58.452c-1.875,1.875-2.929,4.419-2.929,7.071s1.054,5.196 2.929,7.071l2.435,2.435-228.982,228.983c-21.564,21.565-21.564,56.653 0,78.218 10.783,10.782 24.946,16.173 39.109,16.173 12.987,0 25.967-4.545 36.347-13.612 0.708-0.618 295.338-215.129 295.338-215.129 4.467-3.248 5.455-9.502 2.208-13.969-3.248-4.467-9.501-5.455-13.969-2.208l-264.716,192.465c0.766-15.091-4.597-30.437-16.098-41.938-9.484-9.484-21.584-14.792-33.999-15.935l198.904-198.905 11.476,11.476c3.905,3.905 10.237,3.905 14.143,0l24.992-24.992c3.521-3.521 9.25-3.521 12.771,0 3.521,3.52 3.521,9.249 0,12.77l-24.993,24.992zm-217.436,254.67c-13.767,13.768-36.167,13.768-49.934,0-13.767-13.767-13.767-36.167 0-49.933 6.883-6.884 15.925-10.325 24.967-10.325s18.083,3.441 24.967,10.325c13.767,13.766 13.767,36.166 0,49.933zm256.57-265.52c8.835-8.835 10.773-21.995 5.815-32.727l14.63-14.629c3.905-3.905 3.905-10.237 0-14.142-3.905-3.905-10.237-3.905-14.143,0l-14.629,14.629c-10.733-4.957-23.892-3.02-32.728,5.815l-17.921,17.921-13.911-13.911 51.381-51.381c18.988-18.99 49.887-18.989 68.875,0 18.989,18.989 18.989,49.887 0,68.876l-51.38,51.381-13.911-13.911 17.922-17.921z"/> </symbol>
<symbol id="planet" viewBox="0 0 480 480"> <g> <path d="M216.89,345.148c95.158,0,172.574-77.416,172.574-172.573c0-17.01-2.486-33.447-7.092-48.982
		c0.006-0.031,0.014-0.059,0.02-0.09l-0.05-0.01C361.146,52.17,295.001,0,216.89,0C121.733,0,44.317,77.417,44.317,172.575
		C44.317,267.732,121.733,345.148,216.89,345.148z M341.873,259.98c-2.627-0.833-4.978-2.382-6.932-4.614
		c-4.524-5.169-3.519-9.473,0.507-20.452c1.959-5.343,4.18-11.399,4.861-18.012c1.062-10.308-0.619-18.325-5.138-24.51
		c-5.328-7.293-13.339-10.251-19.777-12.627c-1.242-0.458-2.48-0.914-3.684-1.4c-5.264-2.124-10.314-5.15-15.662-8.356
		c-2.917-1.748-5.932-3.555-7.42-5.558c-1.065-2.323,0.884-11.968,5.806-20.702c3.391-6.018,10.044-12.51,17.62-11.003
		c4.069,0.809,7.767,2.179,11.681,3.63c7.329,2.716,15.641,5.793,26.635,4.948c2.063-0.159,4.125-0.185,6.121-0.21
		c2.762-0.035,6.136-0.081,9.543-0.739c2.24,10.385,3.43,21.155,3.43,32.2C369.464,205.064,359.249,235.208,341.873,259.98z
		 M283.699,47.771c2.738-2.686,5.519-5.419,8.062-8.095c10.57,5.979,20.358,13.181,29.175,21.415
		c-0.605,1.151-1.132,1.675-1.299,1.762c0,0-0.055,0.013-0.2,0.007c-1.718-0.062-3.997-0.809-6.41-1.601
		c-4.016-1.316-9.012-2.959-14.705-2.498c-5.553,0.446-10.299,2.783-14.113,4.661c-2.378,1.172-5.629,2.781-6.785,2.489
		c-1.272-0.317-3.809-3.576-4.893-4.968c-0.241-0.31-0.444-0.577-0.614-0.808C274.625,56.67,279.237,52.147,283.699,47.771z
		 M238.074,21.478c-0.97,4.163-2.592,8.724-3.98,10.441c-1.522,1.882-4.198,2.661-5.48,2.076c-1.728-0.788-3.348-4.039-4.032-8.09
		c-0.346-2.05-0.873-3.962-1.484-5.768C228.157,20.34,233.152,20.791,238.074,21.478z M170.034,27.37
		c2.781,8.674,6.013,16.844,9.176,24.598c2.539,6.223,5.417,13.276,4.808,19.256c-0.387,3.807-1.227,4.758-1.225,4.758
		c-0.71,0.515-3.96,0.786-5.902,0.948c-5.026,0.419-11.909,0.994-18.174,5.393c-1.26,0.885-2.403,1.778-3.509,2.642
		c-2.079,1.624-4.043,3.158-5.524,3.573c-1.463,0.409-3.906,0.131-6.494-0.164c-1.702-0.194-3.631-0.414-5.64-0.479
		c-5.846-0.196-21.063,2.457-28.053,11.586c-3.534,4.615-4.55,10.198-2.862,15.72c1.246,4.078,3.799,6.815,6.134,8.956
		c9.96,9.133,23.618,15.6,37.471,17.742c1.947,0.301,3.811,0.529,5.614,0.75c9.788,1.197,13.194,2.021,16.078,7.217
		c0.814,1.468,1.518,3.33,2.261,5.3c0.893,2.366,1.906,5.048,3.36,7.716c4.58,8.399,12.424,13.331,20.475,12.866
		c5.991-0.346,10.354-3.429,13.539-5.68c1.218-0.861,2.479-1.751,3.319-2.102c2.093-0.871,5.923,0.214,9.754,2.768
		c2.885,1.923,6.6,5.055,7.921,9.06c0.81,2.455,0.35,5.398-1.063,6.593l-20.774,17.745c-5.18,4.425-14.822,12.661-15.115,24.873
		c-0.084,3.529,0.61,6.765,1.224,9.62c0.204,0.951,0.473,2.203,0.626,3.202c-0.336,0.086-0.677,0.17-0.965,0.241
		c-1.926,0.471-4.322,1.058-6.781,2.299c-11.938,6.028-13.035,20.082-13.691,28.479c-0.332,4.246-1.514,7.152-2.33,8.293
		c-0.719-0.672-1.757-2.173-2.244-4.075c-0.51-1.995-0.764-4.343-1.032-6.829c-0.421-3.901-0.898-8.324-2.518-12.814
		c-2.086-5.783-5.598-10.392-8.696-14.458c-2.841-3.73-5.295-6.951-6.042-10.107c-0.561-2.37-0.31-5.534-0.043-8.884
		c0.382-4.807,0.815-10.255-0.769-16.02c-2.254-8.199-7.625-13.834-12.363-18.806c-2.81-2.948-5.463-5.732-6.931-8.532
		c-1.54-2.938-1.434-6.055-1.134-10.897c0.289-4.66,0.617-9.941-1.317-15.606c-2.049-6.001-6.804-9.405-9.99-11.686
		c-8.806-6.305-17.052-13.482-24.51-21.335c-3.804-4.004-7.512-8.341-8.872-12.912c-0.394-1.323-0.666-2.321-0.879-3.103
		c-0.841-3.079-1.49-4.753-2.816-6.553C102.181,65.078,133.036,39.338,170.034,27.37z M72.434,123.445
		c2.641,4.25,5.891,7.969,9.167,11.418c8.328,8.768,17.536,16.783,27.409,23.852c0.913,0.654,2.254,1.614,2.76,2.163
		c0.541,1.901,0.376,4.554,0.188,7.6c-0.37,5.963-0.83,13.384,3.381,21.419c2.77,5.285,6.7,9.409,10.168,13.047
		c3.561,3.736,6.636,6.962,7.556,10.307c0.654,2.379,0.393,5.661,0.117,9.134c-0.359,4.521-0.767,9.646,0.517,15.073
		c1.725,7.292,5.907,12.781,9.596,17.624c2.442,3.205,4.748,6.231,5.792,9.125c0.806,2.234,1.117,5.118,1.447,8.172
		c0.316,2.935,0.675,6.26,1.542,9.644c2.535,9.901,10.702,19.406,21.688,19.406c0.581,0,1.169-0.027,1.765-0.081
		c11.387-1.04,19.217-11.365,20.435-26.945c0.24-3.071,0.876-11.228,2.765-12.182c0.419-0.211,1.636-0.509,2.524-0.727
		c3.048-0.746,7.653-1.874,11.376-5.687c6.847-7.012,4.915-16.007,3.761-21.382c-0.399-1.857-0.812-3.778-0.784-4.941
		c0.079-3.285,5.504-7.918,8.11-10.145l20.737-17.712c7.657-6.476,10.512-17.768,7.104-28.098
		c-2.459-7.455-7.931-14.176-15.821-19.436c-9.667-6.443-20.069-8.115-28.539-4.588c-2.884,1.202-5.261,2.881-7.17,4.23
		c-0.913,0.645-2.223,1.57-2.969,1.933c-0.463-0.327-1.257-1.101-1.943-2.36c-0.792-1.453-1.48-3.275-2.208-5.205
		c-0.919-2.437-1.962-5.198-3.485-7.941c-8.07-14.543-20.86-16.107-31.137-17.365c-1.724-0.211-3.352-0.41-4.986-0.663
		c-9.429-1.458-19.039-5.842-25.994-11.816c2.71-1.342,7.235-2.513,9.592-2.434c1.203,0.04,2.577,0.196,4.032,0.362
		c3.975,0.453,8.921,1.017,14.155-0.45c5.284-1.48,9.251-4.58,12.439-7.069c0.95-0.742,1.847-1.443,2.69-2.035
		c1.833-1.287,4.851-1.539,8.345-1.831c8.091-0.675,23.153-1.933,25.36-23.611c1.114-10.942-2.934-20.864-6.187-28.836
		c-2.851-6.989-5.757-14.317-8.258-21.94c4.037-0.736,8.129-1.312,12.269-1.722c0.057,0.127,0.117,0.262,0.173,0.387
		c1.357,3.011,2.528,5.611,2.947,8.095c1.876,11.118,7.366,19.272,15.459,22.961c2.95,1.344,6.13,1.988,9.333,1.988
		c7.42,0,14.958-3.459,19.995-9.69c3.414-4.224,6.38-11.683,7.982-18.96c5.127,1.422,10.148,3.098,15.044,5.028
		c-0.986,0.976-1.985,1.957-2.979,2.932c-5.01,4.914-10.191,9.995-13.722,14.566c-1.439,1.862-3.847,4.978-4.542,9.373
		c-1.176,7.454,3.209,13.088,5.317,15.796c2.941,3.778,7.863,10.102,15.837,12.09c1.753,0.437,3.451,0.625,5.089,0.625
		c6.074,0,11.312-2.579,15.368-4.577c2.524-1.243,5.133-2.528,6.878-2.668c1.685-0.132,4.204,0.691,6.875,1.567
		c3.458,1.134,7.376,2.418,11.916,2.583c6.426,0.231,11.959-2.237,16.147-6.922c10.943,13.332,19.67,28.546,25.625,45.073
		c-1.326,0.081-2.919,0.101-4.244,0.118c-2.204,0.028-4.701,0.059-7.404,0.267c-6.629,0.511-11.713-1.375-18.151-3.76
		c-4.267-1.582-9.104-3.374-14.732-4.493c-14.865-2.953-30.156,5.209-38.942,20.801c-2.573,4.565-14.886,28.056-4.611,42.209
		c3.872,5.333,9.138,8.489,13.368,11.024c5.773,3.46,11.742,7.039,18.46,9.749c1.433,0.579,2.86,1.105,4.24,1.615
		c4.519,1.668,8.787,3.244,10.555,5.664c1.449,1.982,1.917,5.569,1.393,10.661c-0.425,4.126-2.038,8.522-3.744,13.177
		c-4.017,10.953-9.517,25.954,3.22,40.509c2.658,3.037,5.711,5.538,9.05,7.472c-27.895,30.195-67.8,49.138-112.052,49.138
		c-84.128,0-152.572-68.444-152.572-152.573C64.317,155.394,67.175,138.868,72.434,123.445z"/> <path d="M371.597,327.284c41.326-41.324,64.085-96.267,64.085-154.709c0-55.096-20.234-107.078-57.174-147.475l8.026-8.026
		L372.393,2.931l-29.865,29.865l14.143,14.143l7.687-7.687c33.173,36.608,51.326,83.57,51.326,133.322
		c0,53.1-20.679,103.021-58.228,140.568c-75.11,75.113-195.872,77.433-273.811,6.963l7.61-7.61l-14.143-14.142L47.246,328.22
		l14.143,14.143l8.101-8.101c37.934,34.655,86.07,54.58,137.4,56.874V460h-44.096v20h108.197v-20H226.89v-68.865
		C281.576,388.691,332.64,366.243,371.597,327.284z"/> </g> </symbol>
<symbol id="plus" viewBox="0 0 11 11"><g transform="translate(-986 -462)"><path id="lgo8a" d="M986 469v-3h4v-4h3v4h4v3h-4v4h-3v-4z"/></g></symbol>
<symbol id="rocket-launch" viewBox="0 0 441.948 441.948"> <g> <path d="M55.237,336.353c3.905-3.905,3.905-10.237,0-14.143c-3.905-3.904-10.237-3.904-14.143,0L2.929,360.377
		c-3.905,3.905-3.905,10.237,0,14.143c1.952,1.952,4.512,2.929,7.071,2.929s5.119-0.977,7.071-2.929L55.237,336.353z"/> <path d="M306.916,68.629c-8.868,8.869-13.752,20.66-13.752,33.201c0,12.542,4.884,24.333,13.752,33.201
		c9.153,9.153,21.177,13.729,33.201,13.729s24.047-4.576,33.2-13.729c8.869-8.868,13.752-20.659,13.752-33.201
		c0-12.541-4.884-24.332-13.752-33.201C355.011,50.323,325.224,50.323,306.916,68.629z M359.175,120.889
		c-10.509,10.511-27.607,10.51-38.117,0c-5.091-5.091-7.894-11.858-7.894-19.059c0-7.199,2.804-13.968,7.894-19.059
		c5.255-5.255,12.156-7.882,19.059-7.882c6.901,0,13.805,2.628,19.058,7.882c5.091,5.091,7.895,11.859,7.895,19.059
		C367.07,109.031,364.266,115.798,359.175,120.889z"/> <path d="M86.775,353.748c-3.905-3.904-10.237-3.904-14.142,0l-53.536,53.537c-3.905,3.905-3.905,10.237,0,14.143
		c1.953,1.952,4.512,2.929,7.071,2.929s5.119-0.977,7.071-2.929l53.536-53.537C90.68,363.985,90.68,357.653,86.775,353.748z"/> <path d="M435.581,13.329c-0.938-3.382-3.581-6.023-6.961-6.962c-36.445-10.115-75.921-8.147-114.161,5.688
		c-29.631,10.721-58.449,28.693-79.065,49.31l-31.096,31.096L91.644,110.058c-2.094,0.327-4.029,1.311-5.528,2.809l-72.051,72.051
		c-2.806,2.807-3.688,7.006-2.247,10.703c1.441,3.697,4.933,6.192,8.897,6.359l71.073,2.989l-17.813,17.813
		c-3.905,3.905-3.905,10.237,0,14.143l10.397,10.396L53.319,294.92c-2.584,3.961-2.041,9.19,1.304,12.535l79.871,79.87
		c3.345,3.344,8.574,3.89,12.536,1.304l47.597-31.054l10.397,10.397c3.905,3.904,10.237,3.904,14.143,0l17.813-17.813l2.989,71.071
		c0.167,3.965,2.662,7.456,6.359,8.897c1.18,0.46,2.41,0.683,3.63,0.683c2.604,0,5.162-1.019,7.073-2.929l72.051-72.051
		c1.499-1.499,2.482-3.435,2.81-5.528l17.598-112.653l31.095-31.096c20.616-20.616,38.589-49.434,49.31-79.064
		C443.728,89.25,445.695,49.773,435.581,13.329z M142.898,367.444L74.504,299.05l24.321-37.278l33.604,33.604l-3.952,3.952
		c-3.906,3.905-3.906,10.237,0,14.143c3.905,3.904,10.237,3.904,14.143,0l3.952-3.952l33.604,33.604L142.898,367.444z
		 M366.441,192.412l-33.401,33.402c-0.004,0.004-0.008,0.008-0.012,0.012l-34.754,34.754c-3.905,3.905-3.905,10.237,0,14.143
		c3.905,3.904,10.237,3.904,14.143,0l13.082-13.082l-12.865,82.354l-53.64,53.641l-2.804-66.686l27.943-27.943
		c3.905-3.905,3.905-10.237,0-14.143c-3.905-3.904-10.237-3.904-14.143,0l-31.021,31.021c-0.017,0.017-0.033,0.033-0.05,0.05
		l-26.824,26.823l-8.917-8.917c-0.102-0.105-0.204-0.208-0.31-0.309l-42.155-42.156l120.945-120.944
		c3.905-3.905,3.906-10.237,0-14.143c-3.904-3.903-10.236-3.904-14.142,0L146.571,281.235l-42.157-42.157
		c-0.1-0.104-0.202-0.206-0.307-0.307l-8.917-8.918l26.824-26.824c0.017-0.016,0.033-0.032,0.049-0.049l31.021-31.021
		c3.906-3.905,3.906-10.237,0-14.143c-3.904-3.904-10.237-3.904-14.142,0l-27.943,27.943l-66.686-2.805l53.64-53.64l82.354-12.864
		l-13.082,13.081l14.142,14.143l34.649-34.649c0.075-0.073,0.15-0.147,0.223-0.223l33.296-33.296
		c27.828-27.827,93.904-69.058,168.203-51.297C435.499,98.509,394.268,164.586,366.441,192.412z"/> <path d="M105.595,386.711l-38.166,38.166c-3.905,3.905-3.905,10.237,0,14.143c1.953,1.952,4.512,2.929,7.071,2.929
		s5.119-0.977,7.071-2.929l38.166-38.166c3.905-3.905,3.905-10.237,0-14.143C115.833,382.806,109.501,382.806,105.595,386.711z"/> </g> </symbol>
<symbol id="rub" viewBox="0 0 18 22"><g transform="translate(-1064 -397)"><path fill="#3e3130" id="r2u4a" d="M1068.984 397.457h3.78c2.297 0 3.917.2 4.861.6 1.168.498 2.053 1.191 2.656 2.08.604.888.905 1.929.905 3.12 0 1.308-.353 2.493-1.06 3.552a6.1 6.1 0 0 1-2.842 2.314c-1.19.484-3.168.745-5.935.785l-.425 3.092H1074v3h-3.488l-.413 3.004h-4.06l.411-3.004H1064v-3h2.86zm2.859 8.642c2.194-.01 3.626-.24 4.296-.689.67-.449 1.004-1.118 1.004-2.007 0-.498-.13-.917-.391-1.26-.262-.34-.649-.58-1.161-.717-.513-.136-1.529-.205-3.048-.205z"/></g></symbol>
<symbol id="ruler" viewBox="0 0 444.066 444.066"> <g> <path d="m434.066,18.543h-79.008c-3.658,0-6.854,1.965-8.596,4.896-0.581,0.977-74.925,160.373-74.925,160.373v-155.269c0-5.523-4.477-10-10-10h-79.008c-3.662,0-6.86,1.969-8.601,4.906-0.58,0.979-74.92,160.373-74.92,160.373v-155.279c0-5.523-4.477-10-10-10h-79.008c-5.523,0-10,4.477-10,10v386.98c0,5.523 4.477,10 10,10h79.008c3.665,0 6.866-1.973 8.605-4.913 0.58-0.98 74.915-160.372 74.915-160.372v155.285c0,5.523 4.477,10 10,10h79.008c3.669,0 6.872-1.977 8.61-4.923 0.579-0.982 74.91-160.373 74.91-160.373v155.296c0,5.523 4.477,10 10,10h79.008c5.523,0 10-4.477 10-10v-386.98c0.002-5.523-4.475-10-9.998-10zm-10,20v290.189h-59.008v-18.899h20.636c5.523,0 10-4.477 10-10s-4.477-10-10-10h-20.636v-18.899h20.636c5.523,0 10-4.477 10-10s-4.477-10-10-10h-20.636v-18.9h20.636c5.523,0 10-4.477 10-10s-4.477-10-10-10h-20.636v-18.899h20.636c5.523,0 10-4.477 10-10s-4.477-10-10-10h-20.636v-18.9h20.636c5.523,0 10-4.477 10-10s-4.477-10-10-10h-20.636v-18.899h20.636c5.523,0 10-4.477 10-10s-4.477-10-10-10h-20.636v-18.901h20.636c5.523,0 10-4.477 10-10s-4.477-10-10-10h-20.636v-17.892h59.008zm-79.008,35.606v138.977l-73.521,156.763v-138.975l73.521-156.765zm-172.529,.01v138.977l-73.521,156.763v-138.975l73.521-156.765zm-93.521-35.616v56.792h-59.008v-56.792h59.008zm-59.008,366.98v-17.892h20.636c5.523,0 10-4.477 10-10s-4.477-10-10-10h-20.636v-18.9h20.636c5.523,0 10-4.477 10-10s-4.477-10-10-10h-20.636v-18.899h20.636c5.523,0 10-4.477 10-10s-4.477-10-10-10h-20.636v-18.899h20.636c5.523,0 10-4.477 10-10s-4.477-10-10-10h-20.636v-18.9h20.636c5.523,0 10-4.477 10-10s-4.477-10-10-10h-20.636v-18.899h20.636c5.523,0 10-4.477 10-10s-4.477-10-10-10h-20.636v-18.9h20.636c5.523,0 10-4.477 10-10s-4.477-10-10-10h-20.636v-18.899h59.008v290.189h-59.008zm231.537-.001h-59.008v-17.892h20.636c5.523,0 10-4.477 10-10s-4.477-10-10-10h-20.636v-18.9h20.636c5.523,0 10-4.477 10-10s-4.477-10-10-10h-20.636v-18.899h20.636c5.523,0 10-4.477 10-10s-4.477-10-10-10h-20.636v-18.899h20.636c5.523,0 10-4.477 10-10s-4.477-10-10-10h-20.636v-18.9h20.636c5.523,0 10-4.477 10-10s-4.477-10-10-10h-20.636v-18.899h20.636c5.523,0 10-4.477 10-10s-4.477-10-10-10h-20.636v-18.9h20.636c5.523,0 10-4.477 10-10s-4.477-10-10-10h-20.636v-18.899h20.636c5.523,0 10-4.477 10-10s-4.477-10-10-10h-20.636v-18.9h20.636c5.523,0 10-4.477 10-10s-4.477-10-10-10h-20.636v-17.892h59.008v366.98zm113.521,0v-56.792h59.008v56.792h-59.008z"/> <path d="m37.406,76.942c2.64,0 5.22-1.07 7.08-2.93 1.86-1.87 2.92-4.44 2.92-7.07 0-2.64-1.06-5.21-2.92-7.08-1.87-1.86-4.44-2.92-7.08-2.92-2.63,0-5.2,1.06-7.07,2.92-1.86,1.87-2.92,4.44-2.92,7.08 0,2.63 1.06,5.21 2.92,7.07s4.44,2.93 7.07,2.93z"/> <path d="m61.596,76.942c2.63,0 5.21-1.07 7.07-2.93s2.93-4.44 2.93-7.07c0-2.63-1.07-5.21-2.93-7.08-1.86-1.86-4.44-2.92-7.07-2.92-2.63,0-5.21,1.06-7.07,2.92-1.86,1.87-2.93,4.45-2.93,7.08 0,2.63 1.07,5.21 2.93,7.07s4.44,2.93 7.07,2.93z"/> <path d="m382.466,367.132c-2.63,0-5.21,1.06-7.07,2.92-1.86,1.87-2.93,4.44-2.93,7.08 0,2.63 1.07,5.21 2.93,7.07s4.44,2.93 7.07,2.93c2.64,0 5.21-1.07 7.07-2.93 1.87-1.87 2.93-4.44 2.93-7.07 0-2.64-1.06-5.21-2.93-7.08-1.86-1.86-4.43-2.92-7.07-2.92z"/> <path d="m406.656,367.132c-2.63,0-5.21,1.06-7.07,2.92-1.86,1.87-2.93,4.44-2.93,7.08 0,2.63 1.07,5.2 2.93,7.07 1.86,1.86 4.44,2.93 7.07,2.93 2.63,0 5.21-1.07 7.07-2.93 1.86-1.87 2.93-4.44 2.93-7.07 0-2.64-1.07-5.21-2.93-7.08-1.86-1.86-4.44-2.92-7.07-2.92z"/> </g> </symbol>
<symbol id="search" viewBox="0 0 512 512"> <g> <path d="m495,466.1l-110.1-110.1c31.1-37.7 48-84.6 48-134 0-56.4-21.9-109.3-61.8-149.2-39.8-39.9-92.8-61.8-149.1-61.8-56.3,0-109.3,21.9-149.2,61.8-39.9,39.8-61.8,92.8-61.8,149.2 0,56.3 21.9,109.3 61.8,149.2 39.8,39.8 92.8,61.8 149.2,61.8 49.5,0 96.4-16.9 134-48l110.1,110c8,8 20.9,8 28.9,0 8-8 8-20.9 0-28.9zm-393.3-123.9c-32.2-32.1-49.9-74.8-49.9-120.2 0-45.4 17.7-88.2 49.8-120.3 32.1-32.1 74.8-49.8 120.3-49.8 45.4,0 88.2,17.7 120.3,49.8 32.1,32.1 49.8,74.8 49.8,120.3 0,45.4-17.7,88.2-49.8,120.3-32.1,32.1-74.9,49.8-120.3,49.8-45.4,0-88.1-17.7-120.2-49.9z"/> </g> </symbol>
<symbol id="shopping-store-cart" viewBox="0 0 554.748 554.748"> <path d="M548.873,164.412c4.896,6.12,6.73,13.464,5.508,22.032l-23.256,133.417    c-0.816,6.938-3.979,12.648-9.486,17.136c-5.508,4.488-11.729,6.732-18.666,6.732H163.925l-6.732,37.944H480.33    c7.752,0,14.48,2.754,20.195,8.262c5.713,5.508,8.566,12.342,8.566,20.502s-2.854,14.994-8.566,20.502    c-5.715,5.508-12.443,8.262-20.195,8.262H122.921c-8.568,0-15.912-3.468-22.032-10.401c-5.712-6.938-7.956-14.895-6.732-23.868    l15.3-83.232L86.201,87.914L20.105,67.106c-7.752-2.448-13.362-7.141-16.83-14.076c-3.468-6.937-4.182-14.28-2.142-22.032    c2.448-7.752,7.242-13.362,14.382-16.83s14.382-4.182,21.726-2.142l84.456,26.928c5.304,1.632,9.69,4.692,13.158,9.18    c3.468,4.488,5.61,9.589,6.426,15.301l4.896,46.512l383.112,42.84C537.857,154.008,544.385,157.884,548.873,164.412z     M166.374,455.113c12.24,0,22.644,4.284,31.212,12.854c8.568,8.565,12.852,18.972,12.852,31.212    c0,12.237-4.284,22.746-12.852,31.518c-8.568,8.772-18.972,13.158-31.212,13.158s-22.644-4.386-31.212-13.158    c-8.568-8.771-12.852-19.278-12.852-31.518s4.284-22.646,12.852-31.212C143.729,459.397,154.133,455.113,166.374,455.113z     M427.697,455.113c12.238,0,22.645,4.284,31.213,12.854c8.564,8.565,12.852,18.972,12.852,31.212    c0,12.237-4.285,22.746-12.852,31.518c-8.568,8.772-18.975,13.158-31.213,13.158c-12.24,0-22.646-4.386-31.211-13.158    c-8.568-8.771-12.855-19.278-12.855-31.518s4.285-22.646,12.855-31.212C405.053,459.397,415.457,455.113,427.697,455.113z" fill="#3e3130"/> </symbol>
<symbol id="tissue" viewBox="0 0 462.845 462.845"> <g> <path d="m449.568,97.75c0-5.523-4.478-10-10-10s-10,4.477-10,10v8.788h-17.845v-8.788c0-5.523-4.478-10-10-10s-10,4.477-10,10v8.788h-17.847l.002-53.326c0-5.523-4.478-10-10-10s-10,4.477-10,10v8.788h-17.845v-8.788c0-5.523-4.478-10-10-10s-10,4.477-10,10v8.788h-17.845v-52c0-5.523-4.478-10-10-10s-10,4.477-10,10v8.788h-17.845v-8.788c0-5.523-4.478-10-10-10s-10,4.477-10,10v8.788h-17.843v-8.788c0-5.523-4.477-10-10-10s-10,4.477-10,10v8.788h-17.845v-8.788c0-5.523-4.477-10-10-10s-10,4.477-10,10v8.788h-17.845v-8.788c0-5.523-4.477-10-10-10s-10,4.477-10,10v8.788h-17.845v-8.788c0-5.523-4.477-10-10-10s-10,4.477-10,10v8.788h-17.844v-8.788c0-5.523-4.477-10-10-10s-10,4.477-10,10v8.788h-17.844v-8.788c0-5.523-4.477-10-10-10s-10,4.477-10,10v355.095c0,5.523 4.477,10 10,10s10-4.477 10-10v-8.788h17.844v8.788c0,5.523 4.477,10 10,10s10-4.477 10-10v-8.788h17.843l.001,52.001c0,5.523 4.477,10 10,10s10-4.477 10-10v-8.788h17.845v8.788c0,5.523 4.477,10 10,10s10-4.477 10-10v-8.788h17.843l.001,53.326c0,5.523 4.477,10 10,10s10-4.477 10-10v-8.788h17.846v8.788c0,5.523 4.477,10 10,10s10-4.477 10-10v-8.788h17.844v8.788c0,5.523 4.478,10 10,10s10-4.477 10-10v-8.788h17.845v8.788c0,5.523 4.478,10 10,10s10-4.477 10-10v-8.788h17.845v8.788c0,5.523 4.478,10 10,10s10-4.477 10-10v-8.788h17.845v8.788c0,5.523 4.478,10 10,10s10-4.477 10-10v-8.788h17.845v8.788c0,5.523 4.478,10 10,10s10-4.477 10-10v-8.788h17.845v8.788c0,5.523 4.478,10 10,10s10-4.477 10-10v-355.096zm-20.003,235.654h-55.689v-26.116h55.689v26.116zm0-46.117h-55.689v-26.117h55.689v26.117zm0-46.116h-55.689v-26.116h55.689v26.116zm0-46.117h-55.689v-26.116h55.689v26.116zm-55.689,184.466v-26.116h55.689v26.116h-55.689zm55.689-252.982v22.4h-55.689v-22.4h55.689zm-75.689-44.537v297.519h-244.912v-14.396c0-0.01 0.001-0.019 0.001-0.029v-8.788h17.845v8.788c0,5.523 4.477,10 10,10s10-4.477 10-10v-8.788h17.845v8.788c0,5.523 4.477,10 10,10s10-4.477 10-10v-8.788h17.844v8.788c0,5.523 4.477,10 10,10s10-4.477 10-10v-8.788h17.844v8.788c0,5.523 4.478,10 10,10s10-4.477 10-10v-8.788h17.845v8.788c0,5.523 4.478,10 10,10s10-4.477 10-10v-283.094h55.688zm-114.081,244.494c0-17.459 14.199-31.663 31.653-31.663 2.292,0 4.543,0.245 6.74,0.722v40.753h-36.849c-1.023-3.139-1.544-6.421-1.544-9.812zm-206.519-287.707h244.912v141.437c-6.247-15.327-21.302-26.163-38.849-26.163-23.126,0-41.94,18.814-41.94,41.94s18.814,41.94 41.94,41.94c17.546,0 32.601-10.835 38.849-26.163v63.504c-2.221-0.289-4.468-0.451-6.74-0.451-28.481,0-51.653,23.176-51.653,51.663 0,3.3 0.325,6.587 0.948,9.812h-187.467v-297.519zm228.003,157.214c0,12.098-9.842,21.94-21.939,21.94s-21.94-9.842-21.94-21.94 9.842-21.94 21.94-21.94 21.939,9.843 21.939,21.94zm-76.626,228.055v-15.72c0-0.01 0.001-0.019 0.001-0.029v-8.788h17.845v8.788c0,5.523 4.477,10 10,10s10-4.477 10-10v-8.788h17.844v8.788c0,5.523 4.478,10 10,10s10-4.477 10-10v-8.788h17.845v8.788c0,5.523 4.478,10 10,10s10-4.477 10-10v-8.788h17.845v8.788c0,5.523 4.478,10 10,10s10-4.477 10-10v-8.788h17.845v8.788c0,5.523 4.478,10 10,10s10-4.477 10-10v-8.788h55.688v24.538h-244.913z"/> <path d="m93.732,160.911c1.248,0 2.482-0.061 3.707-0.151 6.649,13.155 20.18,21.757 35.494,21.757 21.95,0 39.807-17.857 39.807-39.807 0-18.281-12.161-33.641-29.001-38.331-3.039-24.901-24.299-44.257-50.007-44.257-27.788,0-50.394,22.607-50.394,50.395s22.607,50.394 50.394,50.394zm48.24-35.829c6.418,3.277 10.769,9.922 10.769,17.628 0,10.922-8.885,19.807-19.807,19.807-6.247,0-11.893-2.879-15.55-7.518 11.714-6.254 20.679-16.996 24.588-29.917zm-48.24-44.96c16.76,0 30.395,13.635 30.395,30.395s-13.635,30.395-30.395,30.395c-16.759,0-30.394-13.635-30.394-30.395s13.635-30.395 30.394-30.395z"/> <path d="m146.673,255.185c0,18.464 15.021,33.485 33.485,33.485 18.464,0 33.485-15.021 33.485-33.485s-15.021-33.485-33.485-33.485c-18.464-0.001-33.485,15.021-33.485,33.485zm33.485-13.486c7.436,0 13.485,6.049 13.485,13.485 0,7.436-6.049,13.485-13.485,13.485-7.436,0-13.485-6.049-13.485-13.485 5.68434e-14-7.435 6.049-13.485 13.485-13.485z"/> <path d="m214.328,133.068c18.463,0 33.485-15.021 33.485-33.485s-15.021-33.485-33.485-33.485c-18.464,0-33.485,15.021-33.485,33.485s15.022,33.485 33.485,33.485zm0-46.97c7.436,0 13.485,6.049 13.485,13.485s-6.049,13.485-13.485,13.485-13.485-6.049-13.485-13.485 6.05-13.485 13.485-13.485z"/> <path d="m107.903,277.721c0-1.008-0.048-2.009-0.136-3.003 14.213-8.237 23.801-23.607 23.801-41.183 0-26.233-21.343-47.576-47.576-47.576-26.234,0-47.577,21.343-47.577,47.576 0,10.312 3.308,19.86 8.905,27.661-2.835,4.999-4.387,10.703-4.387,16.524 0,18.464 15.021,33.485 33.485,33.485 18.464,0.001 33.485-15.02 33.485-33.484zm-23.911-71.762c15.206,0 27.576,12.371 27.576,27.576s-12.371,27.576-27.576,27.576c-15.206,0-27.577-12.371-27.577-27.576s12.371-27.576 27.577-27.576zm-23.059,71.762c0-0.835 0.085-1.655 0.231-2.457 6.781,3.724 14.56,5.848 22.828,5.848 1.178,0 2.342-0.058 3.499-0.142-1.459,5.869-6.759,10.237-13.073,10.237-7.436-0.001-13.485-6.05-13.485-13.486z"/> </g> </symbol>
<symbol id="vk" viewBox="0 0 576 512"><path d="M545 117.7c3.7-12.5 0-21.7-17.8-21.7h-58.9c-15 0-21.9 7.9-25.6 16.7 0 0-30 73.1-72.4 120.5-13.7 13.7-20 18.1-27.5 18.1-3.7 0-9.4-4.4-9.4-16.9V117.7c0-15-4.2-21.7-16.6-21.7h-92.6c-9.4 0-15 7-15 13.5 0 14.2 21.2 17.5 23.4 57.5v86.8c0 19-3.4 22.5-10.9 22.5-20 0-68.6-73.4-97.4-157.4-5.8-16.3-11.5-22.9-26.6-22.9H38.8c-16.8 0-20.2 7.9-20.2 16.7 0 15.6 20 93.1 93.1 195.5C160.4 378.1 229 416 291.4 416c37.5 0 42.1-8.4 42.1-22.9 0-66.8-3.4-73.1 15.4-73.1 8.7 0 23.7 4.4 58.7 38.1 40 40 46.6 57.9 69 57.9h58.9c16.8 0 25.3-8.4 20.4-25-11.2-34.9-86.9-106.7-90.3-111.5-8.7-11.2-6.2-16.2 0-26.2.1-.1 72-101.3 79.4-135.6z"/></symbol>
<symbol id="zoom-in" viewBox="0 0 244.487 244.487"> <g> <g> <path d="m241.877,230.131l-72.929-72.929c13.973-16.67 22.465-38.004 22.465-61.061 0-52.204-43.503-95.707-95.707-95.707s-95.706,43.504-95.706,95.708 43.503,95.707 95.707,95.707c22.621,0 43.573-8.179 60.104-21.682l72.145,72.145c1.74,1.74 3.48,1.74 6.96,1.74s5.22,0 6.96-1.74c3.482-3.48 3.482-8.7 0.001-12.181zm-146.17-55.683c-43.503,0-78.305-34.802-78.305-78.305s34.802-78.305 78.305-78.305 78.305,34.802 78.305,78.305-34.802,78.305-78.305,78.305z"/> <path d="m121.809,87.442h-17.401v-17.401c0-5.22-3.48-8.701-8.701-8.701-5.22,0-8.701,3.48-8.701,8.701v17.401h-17.401c-5.22,0-8.701,3.48-8.701,8.701s3.48,8.701 8.701,8.701h17.401v17.401c0,5.22 3.48,8.701 8.701,8.701 5.22,0 8.701-3.48 8.701-8.701v-17.401h17.401c5.22,0 8.701-3.48 8.701-8.701 0-5.221-3.481-8.701-8.701-8.701z"/> </g> </g> </symbol>
</svg>